<?xml version="1.0" encoding="utf-8"?>
<!-- Generator: Adobe Illustrator 25.2.3, SVG Export Plug-In . SVG Version: 6.00 Build 0)  -->
<svg version="1.1" id="레이어_1" xmlns="http://www.w3.org/2000/svg" xmlns:xlink="http://www.w3.org/1999/xlink" x="0px"
	 y="0px" viewBox="0 0 202 59" style="enable-background:new 0 0 202 59;" xml:space="preserve">
<style type="text/css">
	.st0{fill:#4F6884;}
	.st1{fill:#4F6884;}
</style>
<g>
	<rect x="79.2" y="46.1" class="st0" width="102.5" height="1"/>
	<path class="st0" d="M85.5,58.5h-1.2v-4.7h-0.7v2.4h-3.5v-5.8h3.5v2.3h0.7v-2.7h1.2V58.5z M81.3,55.3h1.1v-3.8h-1.1V55.3z M85.9,50
		h1.2v8.6h-1.2V50z"/>
	<path class="st0" d="M101.3,50.6c0.4,0,0.7,0.1,1,0.2c0.3,0.2,0.5,0.3,0.7,0.6c0.2,0.2,0.3,0.6,0.4,0.9c0.1,0.3,0.2,0.7,0.2,1.1
		c0,0.4-0.1,0.7-0.1,1c-0.1,0.3-0.2,0.6-0.4,0.9c-0.2,0.2-0.4,0.5-0.7,0.6c-0.3,0.2-0.7,0.2-1.1,0.3c-0.4,0-0.7-0.1-1-0.2
		c-0.3-0.2-0.5-0.3-0.7-0.6c-0.2-0.2-0.4-0.5-0.5-0.9c-0.1-0.3-0.2-0.7-0.2-1.1c0-0.3,0.1-0.7,0.2-1c0.1-0.3,0.2-0.6,0.4-0.9
		c0.2-0.2,0.4-0.5,0.7-0.6C100.5,50.6,100.9,50.6,101.3,50.6 M101.3,55c0.2,0,0.4,0,0.5-0.2c0.1-0.1,0.2-0.2,0.3-0.4
		c0.1-0.2,0.2-0.3,0.2-0.5c0-0.2,0.1-0.4,0.1-0.6c0-0.2,0-0.4-0.1-0.6c-0.1-0.2-0.1-0.4-0.2-0.5c-0.1-0.2-0.2-0.3-0.3-0.4
		c-0.2-0.1-0.3-0.2-0.5-0.2c-0.2,0-0.4,0-0.5,0.2c-0.2,0.1-0.3,0.2-0.3,0.4s-0.2,0.3-0.2,0.5c-0.1,0.2-0.1,0.4-0.1,0.6
		c0,0.2,0,0.4,0.1,0.6s0.1,0.4,0.2,0.5c0.1,0.2,0.2,0.3,0.3,0.4C100.9,54.9,101.1,55,101.3,55 M105.8,58.6h-1.2V50h1.2V58.6z"/>
	<path class="st0" d="M121.6,50.5c0,0.8-0.1,1.5-0.2,2c-0.1,0.6-0.2,1.1-0.4,1.5c-0.2,0.5-0.3,0.8-0.5,1.2l-1.1-0.3
		c0.1-0.1,0.1-0.2,0.2-0.4c0.1-0.1,0.1-0.3,0.2-0.5c0.1-0.2,0.1-0.4,0.2-0.6h-2.3v-1.1h2.6c0-0.1,0-0.3,0.1-0.4c0-0.1,0-0.3,0-0.4
		h-2.7v-1.1L121.6,50.5L121.6,50.5z M124.2,57.4c0,0.3-0.1,0.7-0.2,0.9c-0.2,0.2-0.3,0.5-0.6,0.7c-0.2,0.2-0.5,0.3-0.8,0.4
		c-0.3,0.1-0.6,0.1-0.9,0.1c-0.3,0-0.6,0-0.9-0.1c-0.3-0.1-0.6-0.2-0.8-0.4c-0.2-0.2-0.4-0.4-0.6-0.7c-0.2-0.3-0.2-0.6-0.2-1
		c0-0.3,0.1-0.7,0.2-0.9c0.1-0.2,0.3-0.5,0.6-0.7c0.2-0.2,0.5-0.3,0.8-0.4c0.3-0.1,0.6-0.1,0.9-0.1c0.3,0,0.6,0,0.9,0.1
		c0.3,0.1,0.6,0.2,0.8,0.4c0.2,0.2,0.4,0.4,0.6,0.7C124.1,56.7,124.2,57,124.2,57.4 M121.7,58.5c0.2,0,0.3,0,0.5-0.1
		c0.2,0,0.3-0.1,0.4-0.2c0.1-0.1,0.2-0.2,0.3-0.3s0.1-0.3,0.1-0.5c0-0.2,0-0.3-0.1-0.5c-0.1-0.1-0.2-0.2-0.3-0.3
		c-0.1-0.1-0.2-0.2-0.4-0.2c-0.2,0-0.3-0.1-0.5-0.1c-0.2,0-0.3,0-0.4,0.1c-0.2,0.1-0.3,0.1-0.4,0.2c-0.1,0.1-0.2,0.2-0.3,0.3
		c-0.1,0.1-0.1,0.3-0.1,0.5s0,0.3,0.1,0.5c0.1,0.1,0.2,0.2,0.3,0.3c0.1,0.1,0.2,0.2,0.4,0.2C121.3,58.5,121.5,58.5,121.7,58.5
		 M122.8,50.1h1.2v5h-1.2V50.1z"/>
	<path class="st0" d="M143.1,54.9h-1.2v-0.5h-1.7c-0.2,0.2-0.4,0.4-0.7,0.5c-0.3,0.1-0.6,0.2-0.9,0.2c-0.3,0-0.6,0-0.8-0.1
		c-0.3-0.1-0.5-0.2-0.7-0.4c-0.2-0.2-0.4-0.3-0.5-0.6c-0.1-0.2-0.2-0.5-0.2-0.8c0-0.3,0.1-0.5,0.1-0.8c0.1-0.2,0.2-0.4,0.4-0.6h-1
		v-1h1.9v-0.9h1.2v0.9h1.9v1h-0.9c0.1,0.1,0.1,0.2,0.2,0.2h1.6v-1.9h1.2V54.9z M138.5,54c0.1,0,0.3,0,0.4-0.1c0.1,0,0.2-0.1,0.3-0.2
		c0.1-0.1,0.1-0.2,0.2-0.3c0.1-0.1,0.1-0.2,0.1-0.4c0-0.1,0-0.2-0.1-0.4c-0.1-0.1-0.1-0.2-0.2-0.3c-0.1-0.1-0.2-0.2-0.3-0.2
		c-0.1,0-0.2-0.1-0.4-0.1c-0.3,0-0.5,0.1-0.7,0.3c-0.2,0.2-0.3,0.4-0.3,0.7c0,0.1,0,0.2,0.1,0.3c0,0.1,0.1,0.2,0.2,0.3
		c0.1,0.1,0.2,0.2,0.3,0.2C138.2,54,138.4,54,138.5,54 M142,55.3h1.2v3.8H138v-3.8h1.1v0.9h2.8L142,55.3L142,55.3z M142,57.3h-2.8
		v0.8h2.8V57.3z M140.7,53.1c0,0.1,0,0.2,0,0.3h1.3v-0.5h-1.2c0,0,0,0.1,0,0.1V53.1z"/>
	<path class="st0" d="M157.1,51.4v1.2h4.4v1.1h-2.1v0.7h2.9v1.1H155v-1.1h3.1v-0.7h-2.2v-3.3h5.5v1.1H157.1z M156.1,57.6
		c0-0.3,0.1-0.6,0.2-0.8c0.1-0.2,0.3-0.4,0.6-0.6c0.2-0.2,0.5-0.3,0.8-0.3c0.3-0.1,0.6-0.1,0.9-0.1c0.3,0,0.6,0,0.9,0.1
		c0.3,0.1,0.6,0.2,0.8,0.3c0.2,0.2,0.4,0.3,0.6,0.6c0.1,0.2,0.2,0.5,0.2,0.8c0,0.3-0.1,0.6-0.2,0.8c-0.1,0.2-0.3,0.4-0.6,0.6
		c-0.2,0.2-0.5,0.3-0.8,0.3c-0.3,0.1-0.6,0.1-0.9,0.1s-0.6,0-0.9-0.1c-0.3-0.1-0.6-0.2-0.8-0.3c-0.2-0.2-0.4-0.3-0.6-0.6
		C156.2,58.2,156.1,58,156.1,57.6 M159.9,57.7c0-0.1,0-0.3-0.1-0.4c-0.1-0.1-0.2-0.2-0.3-0.2c-0.1-0.1-0.3-0.1-0.4-0.2
		c-0.2,0-0.3,0-0.5,0s-0.3,0-0.4,0c-0.2,0-0.3,0.1-0.4,0.1c-0.1,0.1-0.2,0.2-0.3,0.3c-0.1,0.1-0.1,0.2-0.1,0.4s0,0.2,0.1,0.4
		c0.1,0.1,0.2,0.2,0.3,0.2c0.1,0.1,0.3,0.1,0.4,0.2c0.1,0,0.3,0,0.5,0c0.1,0,0.3,0,0.4,0c0.1,0,0.3-0.1,0.4-0.1
		c0.1-0.1,0.2-0.2,0.3-0.2C159.9,57.9,159.9,57.8,159.9,57.7"/>
	<path class="st0" d="M178.3,56.8h3v1.1H174v-1.1h3v-2.3h1.2V56.8z M174.8,50.7h5.9v1.1h-2.2l2.5,2.8l-0.9,0.8l-2.3-2.7
		c-0.6,1-1.5,1.9-2.6,2.7l-0.8-0.9c1.1-0.7,1.9-1.6,2.6-2.7h-2.1L174.8,50.7L174.8,50.7z"/>
	<path class="st0" d="M197.2,51.8c0.2,0.2,0.3,0.4,0.4,0.6c0.1,0.2,0.2,0.5,0.2,0.8c0,0.3-0.1,0.6-0.2,0.8c-0.1,0.2-0.3,0.4-0.5,0.6
		c-0.2,0.2-0.4,0.3-0.7,0.4c-0.3,0.1-0.6,0.1-0.8,0.1c-0.3,0-0.6,0-0.8-0.1c-0.3-0.1-0.5-0.2-0.7-0.4c-0.2-0.2-0.4-0.3-0.5-0.6
		c-0.1-0.2-0.2-0.5-0.2-0.8c0-0.3,0.1-0.5,0.1-0.8c0.1-0.2,0.2-0.4,0.4-0.6h-1v-1h1.9v-0.9h1.2v0.9h1.9v1L197.2,51.8L197.2,51.8z
		 M195.7,54c0.1,0,0.3,0,0.4-0.1c0.1,0,0.2-0.1,0.3-0.2c0.1-0.1,0.1-0.2,0.2-0.3c0.1-0.1,0.1-0.2,0.1-0.4c0-0.1,0-0.2-0.1-0.4
		c-0.1-0.1-0.1-0.2-0.2-0.3c-0.1-0.1-0.2-0.2-0.3-0.2c-0.1,0-0.2-0.1-0.4-0.1c-0.3,0-0.5,0.1-0.7,0.3c-0.2,0.2-0.3,0.4-0.3,0.7
		c0,0.1,0,0.2,0.1,0.3c0,0.1,0.1,0.2,0.2,0.3c0.1,0.1,0.2,0.2,0.3,0.2C195.4,54,195.5,54,195.7,54 M198.8,55.3h1.2v3.8h-5.1v-3.8
		h1.1v0.9h2.8V55.3z M198.8,57.3H196v0.8h2.8V57.3z M200,52h1.2v1H200v1.9h-1.2V50h1.2V52z"/>
	<path class="st1" d="M105,43.2h-5.2V29.7c0-0.5-0.2-0.9-0.5-1.3c-0.3-0.4-0.7-0.5-1.2-0.5h-3.5v15.3h-5.2V27.9H86
		c-0.5,0-0.9,0.2-1.2,0.5c-0.3,0.4-0.5,0.8-0.5,1.3v13.5h-5.2V24H100c1.3,0,2.5,0.6,3.5,1.7s1.5,2.4,1.5,3.9L105,43.2L105,43.2z"/>
	<path class="st1" d="M124.8,43.2h-12.2c-1.3,0-2.5-0.6-3.5-1.7c-1-1.1-1.5-2.4-1.5-3.9v-0.3c0-1.5,0.5-2.8,1.5-3.9
		c1-1.1,2.2-1.7,3.5-1.7h7v-2c0-0.5-0.2-0.9-0.5-1.3c-0.3-0.4-0.7-0.5-1.2-0.5h-10.4V24h12.2c1.3,0,2.5,0.5,3.5,1.7
		c1,1.1,1.5,2.4,1.5,3.9L124.8,43.2L124.8,43.2z M119.7,39.3v-3.8h-5.2c-0.5,0-0.9,0.2-1.2,0.6c-0.3,0.4-0.5,0.8-0.5,1.3
		c0,0.5,0.2,1,0.5,1.3s0.7,0.6,1.2,0.6L119.7,39.3L119.7,39.3z"/>
	<path class="st1" d="M131.7,33.6c0,0.5-0.2,1-0.5,1.3c-0.3,0.4-0.8,0.6-1.2,0.6s-0.9-0.2-1.2-0.6c-0.3-0.4-0.5-0.8-0.5-1.3
		c0-0.5,0.2-1,0.5-1.4c0.3-0.4,0.7-0.5,1.2-0.5s0.9,0.2,1.2,0.5C131.6,32.6,131.7,33.1,131.7,33.6 M131.7,41.3c0,0.5-0.2,1-0.5,1.3
		c-0.3,0.4-0.8,0.6-1.2,0.6s-0.9-0.2-1.2-0.6c-0.3-0.4-0.5-0.8-0.5-1.3c0-0.5,0.2-1,0.5-1.4s0.7-0.6,1.2-0.6s0.9,0.2,1.2,0.6
		C131.6,40.3,131.7,40.7,131.7,41.3"/>
	<path class="st1" d="M152.4,43.2h-5.2v-5.8c0-0.5-0.2-0.9-0.5-1.3s-0.7-0.6-1.2-0.6h-5.2v7.7h-5.2v-23h5.2v11.5h1.7l3.4-7.7h5.2
		l-3.4,7.7c1.4,0,2.6,0.5,3.6,1.6s1.5,2.4,1.5,3.9V43.2z"/>
	<rect x="155.8" y="24" class="st1" width="5.2" height="19.1"/>
	<path class="st1" d="M181.7,43.2h-5.2V29.7c0-0.5-0.2-0.9-0.5-1.3c-0.3-0.4-0.7-0.5-1.2-0.5h-5.2v15.3h-5.2V24h12.2
		c1.3,0,2.5,0.6,3.5,1.7s1.5,2.4,1.5,3.9V43.2z"/>
	<path class="st1" d="M202.4,41.4c0,1.5-0.5,2.8-1.5,3.9c-1,1.1-2.2,1.7-3.5,1.7h-12.2v-3.8h10.4c0.4,0,0.8-0.2,1.2-0.6
		s0.5-0.8,0.5-1.3v-2h-7c-1.3,0-2.5-0.6-3.5-1.7s-1.5-2.4-1.5-3.9v-4.1c0-1.5,0.5-2.8,1.5-3.9s2.2-1.7,3.5-1.7h12.2V41.4z
		 M197.2,35.5v-7.7H192c-0.5,0-0.9,0.2-1.2,0.5c-0.3,0.4-0.5,0.8-0.5,1.3v3.9c0,0.5,0.2,0.9,0.5,1.3c0.3,0.4,0.7,0.6,1.2,0.6
		L197.2,35.5L197.2,35.5z"/>
	<path class="st1" d="M60.2,16.9H40.3c-0.4,0-0.7,0.3-0.7,0.7v33.8c0,4.4-3.6,8-8,8s-8-3.6-8-8V1c0-0.4,0.3-0.7,0.7-0.7
		C31.1,0.7,40.5,1.7,47,4c6.8,2.4,11.4,8,13.9,11.9C61.1,16.3,60.8,16.9,60.2,16.9"/>
	<path class="st1" d="M63.2,20.9v30.6c0,4.4-3.6,8-8,8s-8-3.6-8-8V20.9c0-0.4,0.3-0.7,0.7-0.7h14.6C62.8,20.2,63.2,20.5,63.2,20.9"
		/>
	<path class="st1" d="M19.8,0.7v17.5c0,0.4-0.3,0.7-0.7,0.7h-2.4c-0.4,0-0.7,0.3-0.7,0.7v31.9c0,4.4-3.6,8-8,8s-8-3.6-8-8V0.7
		C0,0.3,0.3,0,0.7,0h18.4C19.5,0,19.8,0.3,19.8,0.7"/>
</g>
</svg>
