<?xml version="1.0" encoding="utf-8"?>
<!-- Generator: Adobe Illustrator 25.2.3, SVG Export Plug-In . SVG Version: 6.00 Build 0)  -->
<svg version="1.1" id="레이어_1" xmlns="http://www.w3.org/2000/svg" xmlns:xlink="http://www.w3.org/1999/xlink" x="0px"
	 y="0px" viewBox="0 0 202 59" style="enable-background:new 0 0 202 59;" xml:space="preserve">
<style type="text/css">
	.st0{fill:#2196F3;}
</style>
<path class="st0" d="M1,50V35.8c0-3.9,1.4-7.3,4.2-10.1c2.8-2.8,6.1-4.2,10-4.2c3.9,0,7.3,1.4,10.1,4.2c2.8,2.8,4.2,6.1,4.2,10.1V50
	h-5.3V35.8c0-2.5-0.9-4.6-2.6-6.3c-1.7-1.7-3.8-2.6-6.3-2.6c-2.5,0-4.6,0.9-6.3,2.6c-1.7,1.8-2.6,3.9-2.6,6.3V50H1z"/>
<g>
	<g>
		<path class="st0" d="M41.1,45.8c-2.8-2.8-4.2-6.1-4.2-10c0-3.9,1.4-7.3,4.2-10.1c2.8-2.8,6.1-4.2,10-4.2c3.9,0,7.3,1.4,10.1,4.2
			c2.8,2.8,4.2,6.1,4.2,10.1c0,3.9-1.4,7.2-4.2,10c-2.8,2.8-6.1,4.2-10.1,4.2C47.2,50,43.9,48.6,41.1,45.8z M44.9,29.4
			c-1.7,1.8-2.6,3.9-2.6,6.3c0,2.5,0.9,4.6,2.6,6.3c1.7,1.7,3.8,2.6,6.3,2.6c2.5,0,4.6-0.9,6.3-2.6c1.8-1.7,2.6-3.8,2.6-6.3
			c0-2.5-0.9-4.6-2.6-6.3c-1.7-1.7-3.8-2.6-6.3-2.6C48.7,26.8,46.6,27.7,44.9,29.4z"/>
	</g>
</g>
<path class="st0" d="M81.6,50h-0.2c-2.3,0-4.3-0.8-5.9-2.4c-1.7-1.7-2.5-3.7-2.5-6V9h5.3v32.5c0,0.9,0.3,1.6,0.9,2.2
	c0.6,0.6,1.3,0.9,2.2,0.9h0.2V50z"/>
<path class="st0" d="M89.1,50V32.8c0-3.1,1.1-5.8,3.3-8c2.2-2.2,4.9-3.3,8-3.3c3.5,0,6.4,1.4,8.7,4c2.3-2.7,5.2-4,8.7-4
	c3.1,0,5.8,1.1,8,3.3c2.2,2.2,3.3,4.9,3.3,8V50h-5.3V32.8c0-1.7-0.6-3.1-1.8-4.2c-1.2-1.2-2.6-1.8-4.2-1.8c-1.7,0-3.1,0.6-4.3,1.8
	c-1.2,1.2-1.8,2.6-1.8,4.2V50h-5.3V32.8c0-1.7-0.6-3.1-1.8-4.2c-1.2-1.2-2.6-1.8-4.3-1.8c-1.7,0-3.1,0.6-4.2,1.8
	c-1.2,1.2-1.8,2.6-1.8,4.2V50H89.1z"/>
<path class="st0" d="M165,49.9h-5.3v-3.2c-2.6,2.2-5.6,3.2-8.9,3.2c-3.9,0-7.2-1.4-10-4.2c-2.8-2.8-4.2-6.1-4.2-10
	c0-3.9,1.4-7.3,4.2-10.1c2.8-2.8,6.1-4.2,10-4.2c3.9,0,7.3,1.4,10.1,4.2c2.8,2.8,4.2,6.1,4.2,10.1V49.9z M150.8,44.7
	c2.5,0,4.6-0.9,6.3-2.6c1.7-1.7,2.6-3.8,2.6-6.3c0-2.5-0.9-4.6-2.6-6.3c-1.8-1.7-3.9-2.6-6.3-2.6c-2.5,0-4.6,0.9-6.3,2.6
	c-1.7,1.8-2.6,3.9-2.6,6.3c0,2.5,0.9,4.6,2.6,6.3C146.3,43.8,148.4,44.7,150.8,44.7z"/>
<path class="st0" d="M172.6,50V35.8c0-3.9,1.4-7.3,4.2-10.1c2.8-2.8,6.1-4.2,10-4.2c3.9,0,7.3,1.4,10.1,4.2
	c2.8,2.8,4.2,6.1,4.2,10.1V50h-5.3V35.8c0-2.5-0.9-4.6-2.6-6.3c-1.7-1.7-3.8-2.6-6.3-2.6c-2.5,0-4.6,0.9-6.3,2.6
	c-1.7,1.8-2.6,3.9-2.6,6.3V50H172.6z"/>
<g>
	<line class="st0" x1="51.2" y1="14.5" x2="51.2" y2="19.1"/>
	<path class="st0" d="M51.2,14.5c0.4,0.4,0.7,0.8,0.8,1.2c0.2,0.4,0.2,0.8,0.2,1.2c0,0.4-0.1,0.8-0.2,1.2c-0.2,0.4-0.4,0.8-0.8,1.2
		c-0.4-0.4-0.7-0.8-0.8-1.2c-0.2-0.4-0.2-0.8-0.2-1.2c0-0.4,0.1-0.8,0.2-1.2C50.5,15.3,50.7,14.9,51.2,14.5z"/>
</g>
<g>
	<line class="st0" x1="66.7" y1="21.4" x2="63.5" y2="24.6"/>
	<path class="st0" d="M66.7,21.4c0,0.6-0.1,1-0.2,1.4c-0.2,0.4-0.4,0.7-0.7,1c-0.3,0.3-0.6,0.5-1,0.7c-0.4,0.2-0.8,0.3-1.4,0.2
		c0-0.6,0.1-1,0.2-1.4c0.2-0.4,0.4-0.7,0.7-1c0.3-0.3,0.6-0.5,1-0.7C65.7,21.4,66.1,21.3,66.7,21.4z"/>
</g>
<g>
	<line class="st0" x1="35.6" y1="21.4" x2="38.9" y2="24.6"/>
	<path class="st0" d="M35.6,21.4c0.6,0,1,0.1,1.4,0.2c0.4,0.2,0.7,0.4,1,0.7c0.3,0.3,0.5,0.6,0.7,1c0.2,0.4,0.3,0.8,0.2,1.4
		c-0.6,0-1-0.1-1.4-0.2c-0.4-0.2-0.7-0.4-1-0.7c-0.3-0.3-0.5-0.6-0.7-1C35.7,22.4,35.6,21.9,35.6,21.4z"/>
</g>
</svg>
