<?xml version="1.0" encoding="utf-8"?>
<!-- Generator: Adobe Illustrator 25.2.3, SVG Export Plug-In . SVG Version: 6.00 Build 0)  -->
<svg version="1.1" id="Layer_1" xmlns="http://www.w3.org/2000/svg" xmlns:xlink="http://www.w3.org/1999/xlink" x="0px" y="0px"
	 viewBox="0 0 108.3 108.3" style="enable-background:new 0 0 108.3 108.3;" xml:space="preserve">
<style type="text/css">
	.st0{fill:#686868;}
</style>
<path class="st0" d="M54.2,0C24.2,0,0,24.2,0,54.2s24.2,54.2,54.2,54.2s54.2-24.2,54.2-54.2S84.1,0,54.2,0z M54.2,21
	c10.6,0,19.2,8.6,19.2,19.2s-8.6,19.2-19.2,19.2S35,50.8,35,40.2S43.5,21,54.2,21z M54.2,96.1c-12.8,0-24.3-5.8-32-14.9
	c4.1-7.7,12.1-13.1,21.5-13.1c0.5,0,1,0.1,1.6,0.2c2.8,0.9,5.8,1.5,8.9,1.5s6.1-0.6,8.9-1.5c0.5-0.2,1-0.2,1.6-0.2
	c9.4,0,17.4,5.3,21.5,13.1C78.5,90.3,67,96.1,54.2,96.1z"/>
</svg>
